<svg width="17" height="19" viewBox="0 0 17 19" fill="none" xmlns="http://www.w3.org/2000/svg">
<path d="M9.08325 5.64838C8.68481 5.64838 8.35083 5.78314 8.0813 6.05267C7.81177 6.3222 7.677 6.65619 7.677 7.05463C7.677 7.45615 7.81177 7.79795 8.0813 8.08002C8.35378 8.36517 8.68777 8.50775 9.08325 8.50775C9.48169 8.50775 9.82349 8.36517 10.1086 8.08002C10.3938 7.79486 10.5364 7.45306 10.5364 7.05463C10.5364 6.65914 10.3938 6.32516 10.1086 6.05267C9.82658 5.78314 9.48478 5.64838 9.08325 5.64838ZM9.31763 0.0702515C7.39746 0.0234184 5.7373 0.646465 4.33716 1.93939C2.9388 3.23066 2.19271 4.82637 2.09888 6.7265L0.177002 9.25775C0.0589762 9.42299 0.0472574 9.59682 0.141846 9.77924C0.237042 9.96283 0.389386 10.0546 0.598877 10.0546H2.09888V13.0546C2.09888 13.6171 2.29419 14.0937 2.68481 14.4843C3.07544 14.8749 3.552 15.0703 4.1145 15.0703H5.09888V17.0859C5.09888 17.3437 5.19849 17.5722 5.39771 17.7714C5.59692 17.9706 5.82544 18.0703 6.08325 18.0703H11.0989C11.3748 18.0703 11.6092 17.9706 11.802 17.7714C11.9895 17.5777 12.0833 17.3492 12.0833 17.0859V13.3828C13.33 12.7833 14.3183 11.9064 15.0481 10.7519C15.805 9.55456 16.1604 8.24401 16.1145 6.82025C16.0441 5.01305 15.3449 3.4486 14.0168 2.12689C12.6862 0.802608 11.1198 0.117062 9.31763 0.0702515ZM12.0833 7.05463C12.0833 7.19525 12.0833 7.33588 12.0833 7.4765L12.927 8.13275C12.9999 8.20567 13.0155 8.28379 12.9739 8.36713L12.177 9.77338C12.1458 9.83588 12.052 9.86713 11.8958 9.86713L10.9114 9.44525C10.7864 9.57025 10.5676 9.69525 10.2551 9.82025L10.1145 10.8984C10.052 11.0234 9.97388 11.0859 9.88013 11.0859H8.28638C8.16138 11.0859 8.09888 11.0234 8.09888 10.8984L7.95825 9.82025C7.69039 9.73097 7.45602 9.60597 7.25513 9.44525L6.27075 9.86713C6.14575 9.86713 6.06763 9.83588 6.03638 9.77338L5.2395 8.36713C5.18325 8.25463 5.19888 8.1765 5.28638 8.13275L6.13013 7.4765C6.13013 7.42963 6.12231 7.35931 6.10669 7.26556C6.09106 7.17181 6.08325 7.1015 6.08325 7.05463C6.08325 7.02653 6.08988 6.97634 6.10315 6.90405C6.12113 6.80605 6.13013 6.73124 6.13013 6.67963L5.28638 6.02338C5.20602 5.9832 5.19039 5.88945 5.2395 5.74213L6.03638 4.38275C6.09263 4.27025 6.17075 4.239 6.27075 4.289L7.302 4.71088C7.47909 4.53379 7.69784 4.39317 7.95825 4.289L8.09888 3.25775C8.09888 3.13275 8.16138 3.07025 8.28638 3.07025H9.88013C9.99471 3.07025 10.0728 3.13275 10.1145 3.25775L10.2551 4.289C10.5155 4.39317 10.7343 4.53379 10.9114 4.71088L11.8958 4.289C12.0208 4.2265 12.1145 4.25775 12.177 4.38275L12.9739 5.74213C13.026 5.84629 13.0103 5.94004 12.927 6.02338L12.0364 6.67963C12.0676 6.77338 12.0833 6.89838 12.0833 7.05463Z" fill="#818CF8"/>
</svg>
