<svg width="68" height="56" viewBox="0 0 68 56" fill="none" xmlns="http://www.w3.org/2000/svg">
<path fill-rule="evenodd" clip-rule="evenodd" d="M33.9444 0C32.5859 5.97716e-05 31.2653 0.448382 30.1875 1.27544C29.1097 2.1025 28.3349 3.26207 27.9833 4.57434C27.6317 5.8866 27.7229 7.27822 28.2427 8.53338C28.7626 9.78853 29.6821 10.8371 30.8586 11.5164V15.4293H21.601C11.7263 15.4293 9.25758 23.6593 9.25758 27.7727V49.3737C9.25758 51.432 10.4919 55.5455 15.4293 55.5455H18.5152V43.202C18.5152 42.3836 18.8403 41.5987 19.419 41.02C19.9977 40.4413 20.7826 40.1162 21.601 40.1162H46.2879C47.1063 40.1162 47.8912 40.4413 48.4699 41.02C49.0486 41.5987 49.3737 42.3836 49.3737 43.202V55.5455H52.4596C57.397 55.5455 58.6313 51.432 58.6313 49.3737V27.7727C58.6313 17.898 50.4013 15.4293 46.2879 15.4293H37.0303V11.5164C38.2068 10.8371 39.1263 9.78853 39.6462 8.53338C40.166 7.27822 40.2572 5.8866 39.9056 4.57434C39.554 3.26207 38.7792 2.1025 37.7014 1.27544C36.6236 0.448382 35.303 5.97716e-05 33.9444 0ZM43.202 55.5455V46.2879H37.0303V55.5455H43.202ZM30.8586 55.5455V46.2879H24.6869V55.5455H30.8586ZM61.7172 46.2879V30.8586C63.7754 30.8586 67.8889 32.0929 67.8889 37.0303V40.1162C67.8889 42.1744 66.6545 46.2879 61.7172 46.2879ZM6.17172 30.8586V46.2879C1.23434 46.2879 0 42.1744 0 40.1162V37.0303C0 32.0929 4.11345 30.8586 6.17172 30.8586ZM24.6869 27.7727C23.8685 27.7727 23.0835 28.0978 22.5048 28.6766C21.9261 29.2553 21.601 30.0402 21.601 30.8586C21.601 31.677 21.9261 32.4619 22.5048 33.0406C23.0835 33.6193 23.8685 33.9444 24.6869 33.9444H24.69C25.5084 33.9444 26.2933 33.6193 26.872 33.0406C27.4507 32.4619 27.7758 31.677 27.7758 30.8586C27.7758 30.0402 27.4507 29.2553 26.872 28.6766C26.2933 28.0978 25.5084 27.7727 24.69 27.7727H24.6869ZM40.1162 30.8586C40.1162 30.0402 40.4413 29.2553 41.02 28.6766C41.5987 28.0978 42.3836 27.7727 43.202 27.7727H43.2051C44.0235 27.7727 44.8084 28.0978 45.3871 28.6766C45.9659 29.2553 46.291 30.0402 46.291 30.8586C46.291 31.677 45.9659 32.4619 45.3871 33.0406C44.8084 33.6193 44.0235 33.9444 43.2051 33.9444H43.202C42.3836 33.9444 41.5987 33.6193 41.02 33.0406C40.4413 32.4619 40.1162 31.677 40.1162 30.8586Z" fill="url(#paint0_linear_2468_6501)"/>
<defs>
<linearGradient id="paint0_linear_2468_6501" x1="14.3611" y1="-76.375" x2="90.0194" y2="-62.1486" gradientUnits="userSpaceOnUse">
<stop stop-color="#135BEC"/>
<stop offset="1" stop-color="#0A44B8"/>
</linearGradient>
</defs>
</svg>
