<svg width="18" height="18" viewBox="0 0 18 18" fill="none" xmlns="http://www.w3.org/2000/svg">
<path d="M15.9844 0H2.01562C1.45312 0 0.976562 0.195313 0.585938 0.585938C0.195312 0.976562 0 1.45312 0 2.01562V15.9844C0 16.5469 0.195312 17.0234 0.585938 17.4141C0.976562 17.8047 1.45312 18 2.01562 18H15.9844C16.5469 18 17.0234 17.8047 17.4141 17.4141C17.8047 17.0234 18 16.5469 18 15.9844V2.01562C18 1.45312 17.8047 0.976562 17.4141 0.585938C17.0234 0.195313 16.5469 0 15.9844 0ZM5.01562 14.0156C4.73438 14.0156 4.49219 13.9141 4.28906 13.7109C4.08594 13.5078 3.98438 13.2656 3.98438 12.9844V9.98438C3.98438 9.72412 4.08594 9.49561 4.28906 9.29883C4.49471 9.09961 4.7369 9 5.01562 9C5.27344 9 5.50195 9.09961 5.70117 9.29883C5.90039 9.49805 6 9.72656 6 9.98438V12.9844C6 13.2631 5.90039 13.5053 5.70117 13.7109C5.50439 13.9141 5.27588 14.0156 5.01562 14.0156ZM9 14.0156C8.72168 14.0156 8.4873 13.9141 8.29688 13.7109C8.10938 13.5109 8.01562 13.2688 8.01562 12.9844V12C8.01562 11.7188 8.10938 11.4844 8.29688 11.2969C8.48438 11.1094 8.71875 11.0156 9 11.0156C9.28125 11.0156 9.51562 11.1094 9.70312 11.2969C9.89062 11.4844 9.98438 11.7188 9.98438 12V12.9844C9.98438 13.2688 9.89062 13.5109 9.70312 13.7109C9.5127 13.9141 9.27832 14.0156 9 14.0156ZM9 9C8.72404 9 8.48967 8.90039 8.29688 8.70117C8.10938 8.50742 8.01562 8.27891 8.01562 8.01562C8.01562 7.73125 8.10938 7.48906 8.29688 7.28906C8.4873 7.08594 8.72168 6.98438 9 6.98438C9.27832 6.98438 9.5127 7.08594 9.70312 7.28906C9.89062 7.48906 9.98438 7.73125 9.98438 8.01562C9.98438 8.27891 9.89062 8.50742 9.70312 8.70117C9.51033 8.90039 9.27596 9 9 9ZM12.9844 14.0156C12.7241 14.0156 12.4956 13.9141 12.2988 13.7109C12.0996 13.5053 12 13.2631 12 12.9844V5.01562C12 4.7369 12.0996 4.49471 12.2988 4.28906C12.4956 4.08594 12.7241 3.98438 12.9844 3.98438C13.2656 3.98438 13.5078 4.08594 13.7109 4.28906C13.9141 4.49219 14.0156 4.73438 14.0156 5.01562V12.9844C14.0156 13.2656 13.9141 13.5078 13.7109 13.7109C13.5078 13.9141 13.2656 14.0156 12.9844 14.0156Z" fill="white"/>
</svg>
