<svg width="20" height="20" viewBox="0 0 20 20" fill="none" xmlns="http://www.w3.org/2000/svg">
<path d="M18.8 10.2083C18.8 9.55825 18.7417 8.93325 18.6333 8.33325H10V11.8833H14.9333C14.7167 13.0249 14.0667 13.9916 13.0917 14.6416V16.9499H16.0667C17.8 15.3499 18.8 12.9999 18.8 10.2083Z" fill="#4285F4"/>
<path d="M9.99974 19.1667C12.4747 19.1667 14.5497 18.35 16.0664 16.95L13.0914 14.6417C12.2747 15.1917 11.2331 15.525 9.99974 15.525C7.61641 15.525 5.59141 13.9167 4.86641 11.75H1.81641V14.1167C3.32474 17.1083 6.41641 19.1667 9.99974 19.1667Z" fill="#34A853"/>
<path d="M4.86634 11.7416C4.68301 11.1916 4.57467 10.6083 4.57467 9.99993C4.57467 9.3916 4.68301 8.80827 4.86634 8.25827V5.8916H1.81634C1.19134 7.12493 0.833008 8.5166 0.833008 9.99993C0.833008 11.4833 1.19134 12.8749 1.81634 14.1083L4.86634 11.7416Z" fill="#FBBC05"/>
<path d="M9.99974 4.48325C11.3497 4.48325 12.5497 4.94992 13.5081 5.86659L16.1331 3.24159C14.5414 1.74159 12.4747 0.833252 9.99974 0.833252C6.41641 0.833252 3.32474 2.89159 1.81641 5.89159L4.86641 8.25825C5.59141 6.09159 7.61641 4.48325 9.99974 4.48325Z" fill="#EA4335"/>
</svg>
