<svg width="161" height="117" viewBox="0 0 161 117" fill="none" xmlns="http://www.w3.org/2000/svg">
<path d="M76.5036 14.5371C79.0717 14.9069 80.5934 15.5273 82.61 17.1577C83.1088 17.5552 83.6077 17.9528 84.1217 18.3624C84.9037 18.9999 84.9037 18.9999 85.7016 19.6504C86.7882 20.5191 87.8752 21.3873 88.9627 22.2549C89.4942 22.6814 90.0256 23.1079 90.5731 23.5472C92.6658 25.2121 94.7928 26.8273 96.9342 28.4281C97.5793 28.9115 98.2245 29.3949 98.8893 29.8929C99.5581 30.3912 99.5581 30.3912 100.24 30.8995C99.838 32.9342 99.2569 34.2552 98.0018 35.8956C97.6782 36.3235 97.3545 36.7514 97.0211 37.1923C96.6707 37.6467 96.3203 38.1012 95.9593 38.5694C95.2227 39.5405 94.4862 40.5117 93.7498 41.4829C93.3684 41.9828 92.9871 42.4826 92.5941 42.9976C90.6773 45.5156 88.7827 48.0504 86.8884 50.5856C86.538 51.0516 86.1876 51.5176 85.8266 51.9977C84.0679 54.3063 84.0679 54.3063 82.6073 56.8067C79.1981 56.4952 77.0808 54.7666 74.469 52.7161C71.6656 54.9888 71.5203 56.7226 71.078 60.2156C70.2303 61.5365 70.2303 61.5365 69.0435 62.2609C67.2208 62.3887 67.2208 62.3887 65.6525 62.2609C65.4297 62.9317 65.4297 62.9317 65.2025 63.6161C63.9813 66.383 62.34 68.7623 60.6455 71.257C60.1032 72.063 60.1032 72.063 59.5499 72.8852C58.7841 74.022 58.0167 75.1577 57.2479 76.2924C56.0881 78.0045 54.9331 79.7197 53.7788 81.4356C52.3073 83.6222 50.8218 85.7982 49.3262 87.9682C48.1123 89.7345 46.9531 91.5109 45.8597 93.3548C42.9069 98.0837 42.9069 98.0837 40.1034 98.9632C38.0499 99.1329 36.1667 99.0567 34.1165 98.8633C33.4294 98.8295 32.7422 98.7957 32.0343 98.7608C30.3495 98.6729 28.6751 98.5503 26.9955 98.3946C27.953 96.3184 29.0895 94.5848 30.4765 92.7727C30.9063 92.2087 31.3361 91.6447 31.7789 91.0636C32.2426 90.4596 32.7063 89.8556 33.184 89.2333C33.9018 88.2918 33.9018 88.2918 34.6341 87.3312C36.1551 85.3361 37.6788 83.3431 39.203 81.3504C41.1553 78.7957 43.1046 76.2387 45.0524 73.6805C45.7135 72.8178 45.7135 72.8178 46.3879 71.9376C49.1188 68.3509 51.6805 64.6884 54.1232 60.8974C48.8092 67.166 43.5713 73.4945 38.3797 79.866C37.1719 81.3461 35.9597 82.8224 34.747 84.2985C33.9713 85.2472 33.196 86.1962 32.421 87.1454C31.8649 87.8228 31.8649 87.8228 31.2976 88.5138C29.3465 90.9194 27.6579 93.3161 26.1054 96.0084C24.6972 98.2899 24.6972 98.2899 22.8389 98.7595C21.3156 98.7781 21.3156 98.7781 18.8572 98.3946C19.9277 95.0966 21.7911 92.638 23.8589 89.9151C24.2184 89.4373 24.578 88.9595 24.9485 88.4672C28.0168 84.4318 31.2617 80.5715 34.5828 76.7458C36.3246 74.738 38.0038 72.685 39.6692 70.6126C41.6124 68.2042 43.6104 65.8737 45.6882 63.5818C52.1795 57.0424 52.1795 57.0424 54.8014 48.6255C56.1578 47.262 56.1578 47.262 57.7685 47.0915C60.3459 46.3513 60.9682 44.7528 62.2615 42.4896C61.8419 42.2787 61.4223 42.0678 60.9899 41.8505C60.0574 41.3817 59.1249 40.913 58.1924 40.4443C59.2795 36.8302 61.6044 34.2211 63.9146 31.3257C68.2443 25.822 72.4155 20.2236 76.5036 14.5371Z" fill="white"/>
<path d="M14.715 100.087C15.4119 100.08 15.4119 100.08 16.1229 100.072C17.6554 100.06 19.1871 100.068 20.7196 100.078C21.7872 100.076 22.8547 100.073 23.9223 100.07C26.1589 100.066 28.3952 100.072 30.6317 100.084C33.4947 100.1 36.3569 100.091 39.2198 100.075C41.4244 100.065 43.6288 100.068 45.8333 100.075C46.8886 100.077 47.944 100.074 48.9993 100.068C50.4767 100.061 51.953 100.072 53.4303 100.087C54.27 100.089 55.1097 100.091 55.9748 100.093C58.5943 100.503 59.7138 101.315 61.5834 103.167C62.5019 105.014 62.3057 106.582 62.2616 108.621C63.0169 108.684 63.0169 108.684 63.7875 108.749C66.2755 109.488 67.0228 110.512 68.3653 112.712C68.5772 114.586 68.5772 114.586 68.3653 116.12C67.0549 117.438 65.0855 116.884 63.3419 116.887C62.7165 116.885 62.0911 116.882 61.4468 116.88C60.4643 116.88 60.4643 116.88 59.462 116.88C57.2859 116.879 55.1099 116.874 52.9338 116.869C51.4294 116.868 49.9251 116.867 48.4207 116.866C44.4526 116.863 40.4845 116.857 36.5165 116.849C32.4708 116.842 28.4251 116.839 24.3794 116.836C16.4349 116.828 8.49047 116.817 0.545987 116.802C-0.132206 114.757 -0.132206 114.757 0.291665 113.095C1.46953 110.888 2.51275 109.98 4.61515 108.621C6.49316 108.211 8.33533 108.148 10.2526 108.11C11.006 108.079 11.006 108.079 11.7746 108.048C13.0047 108.001 14.2355 107.968 15.4662 107.939C12.5568 107.489 9.64734 107.039 6.64972 106.576C7.70976 101.248 9.41264 100.101 14.715 100.087Z" fill="white"/>
<path d="M74.469 62.9424C76.7636 63.7113 77.1662 64.2811 78.6229 66.1382C85.9966 74.8223 97.5178 77.5708 108.001 80.6489C118.482 83.7424 127.886 87.6451 136.185 94.9855C137.012 95.613 137.012 95.613 137.856 96.2532C139.836 97.9333 141.312 99.7333 142.882 101.803C143.425 102.506 143.969 103.209 144.53 103.934C145.679 105.894 145.679 105.894 145.531 107.268C144.631 109.565 142.623 110.799 140.72 112.243C140.325 112.561 139.931 112.88 139.524 113.208C136.682 115.399 136.682 115.399 134.72 115.556C132.807 114.331 131.838 112.523 130.674 110.624C124.642 101.425 115.323 96.8238 105.321 92.9908C104.634 92.727 104.634 92.727 103.932 92.458C101.61 91.5719 99.2824 90.7028 96.9456 89.8556C89.0433 86.9425 81.558 83.1578 77.5633 75.3554C75.7108 71.1813 74.6958 67.503 74.469 62.9424Z" fill="white"/>
<path d="M148.35 8.95508C151.753 10.2815 153.004 13.4642 154.502 16.6934C160.734 31.7561 162.845 48.2394 159.243 64.3061C159.077 65.0971 158.911 65.8881 158.74 66.703C156.784 75.0178 153.431 83.2801 148.392 90.2133C146.474 91.1776 145.087 91.1126 142.966 90.8951C141.652 89.7446 141.652 89.7446 140.932 88.168C141.217 84.9772 142.731 82.3848 144.196 79.6033C152.688 62.902 154.101 44.616 148.529 26.7278C147.489 23.5524 146.357 20.5127 144.789 17.5624C143.6 15.1282 143.152 13.7914 143.645 11.1282C145.152 9.32204 146.016 9.10485 148.35 8.95508Z" fill="white"/>
<path d="M137.541 17.9458C143.143 22.4307 145.064 32.9848 146.082 39.6878C147.648 53.7722 145.563 69.082 136.863 80.6685C135.517 81.9069 135.517 81.9069 134.15 82.7138C131.988 82.2451 131.988 82.2451 130.081 81.3503C129.106 79.3907 129.209 78.0825 129.403 75.8961C130.197 74.1659 131.018 72.5625 131.946 70.9107C138.32 58.7996 138.902 46.1049 135.506 32.9447C134.697 30.7572 133.802 28.6396 132.852 26.5105C131.889 24.2268 131.437 22.4722 131.437 19.9911C132.834 17.4306 134.857 17.6086 137.541 17.9458Z" fill="white"/>
<path d="M66.3308 0.21976C67.9415 1.32763 67.9415 1.32763 69.0436 2.94683C69.37 6.13947 68.9293 7.69199 66.956 10.1853C66.5076 10.7629 66.0593 11.3404 65.5973 11.9355C65.112 12.5408 64.6267 13.1462 64.1267 13.7699C63.1319 15.0434 62.1376 16.3173 61.1437 17.5915C60.6465 18.2229 60.1492 18.8542 59.637 19.5047C57.553 22.1735 55.5393 24.8926 53.5299 27.6183C50.2438 32.0723 50.2438 32.0723 48.6978 33.6264C44.5463 34.0058 44.5463 34.0058 42.6788 32.8168C41.4263 30.7883 41.0588 28.9469 41.5979 26.6116C44.6263 19.2708 56.1083 -2.40907 66.3308 0.21976Z" fill="white"/>
<path d="M115.161 37.0351C116.814 38.4413 116.814 38.4413 117.873 40.444C117.661 44.0636 116.614 46.9275 114.906 50.0739C114.67 50.5134 114.434 50.9528 114.191 51.4055C110.231 58.4793 104.266 65.9261 97.5276 70.4418C94.8837 70.7317 93.3657 70.8096 91.0848 69.3765C89.6199 66.9835 90.1227 65.6402 90.7457 62.9423C92.0094 60.921 92.0094 60.921 93.6704 58.8943C94.2869 58.1263 94.9023 57.3575 95.5169 56.588C96.0062 55.9826 96.0062 55.9826 96.5054 55.365C98.3146 53.0896 100.036 50.7483 101.766 48.4121C102.737 47.107 103.709 45.8021 104.682 44.4983C105.382 43.5542 106.076 42.6059 106.767 41.6547C107.127 41.1611 107.488 40.6675 107.859 40.159C108.186 39.708 108.513 39.257 108.85 38.7923C110.627 36.6335 112.512 36.7156 115.161 37.0351Z" fill="white"/>
<path d="M126.012 26.1268C127.185 27.8392 127.185 27.8392 128.174 30.0043C128.505 30.71 128.836 31.4158 129.178 32.1428C133.189 41.7574 133.467 53.0642 130.081 62.9423C126.465 71.7288 126.465 71.7288 123.299 73.8506C121.646 74.1488 121.646 74.1488 119.908 73.8506C118.297 72.3592 118.297 72.3592 117.195 70.4417C117.46 67.8824 118.333 65.9213 119.527 63.6666C123.666 55.5603 124.389 47.1591 121.943 38.3986C121.464 37.213 120.97 36.0339 120.459 34.8619C119.233 31.9307 118.875 29.9248 119.908 26.8085C121.924 25.0711 123.584 25.281 126.012 26.1268Z" fill="white"/>
<path d="M102.953 33.6265C104.649 34.4787 104.649 34.4787 106.344 35.6718C106.344 38.8231 105.422 40.0492 103.631 42.4468C103.195 43.0455 103.195 43.0455 102.751 43.6562C98.1585 49.9227 93.4272 56.0884 88.711 62.2607C85.4048 60.4711 85.4048 60.4711 84.6418 58.1701C85.3396 56.8787 85.3396 56.8787 86.438 55.4244C86.8376 54.888 87.2373 54.3516 87.649 53.7989C88.0834 53.2306 88.5178 52.6623 88.9653 52.0768C89.4006 51.4962 89.8358 50.9156 90.2843 50.3175C91.1589 49.1519 92.0363 47.9885 92.9166 46.8274C93.9636 45.4449 95.0019 44.0568 96.0334 42.6626C98.293 39.6097 100.577 36.5887 102.953 33.6265Z" fill="white"/>
<path d="M70.3998 9.08252C72.0953 9.93473 72.0953 9.93473 73.7908 11.1278C73.7908 14.1967 73.4392 14.6463 71.6317 16.9655C71.1729 17.5615 70.7141 18.1576 70.2414 18.7718C69.5015 19.7127 69.5015 19.7127 68.7467 20.6726C67.7485 21.9613 66.7507 23.2502 65.7532 24.5395C65.2686 25.1621 64.7841 25.7848 64.2848 26.4263C62.1198 29.2362 60.0521 32.1147 57.9884 35.0004C56.836 36.3533 56.836 36.3533 54.8014 37.035C53.3178 36.055 53.3178 36.055 52.0886 34.9897C52.4639 32.0519 54.2657 29.9926 55.9882 27.7033C56.3138 27.2642 56.6394 26.825 56.9749 26.3726C58.0533 24.9228 59.1392 23.4789 60.2269 22.0361C60.6209 21.5121 61.0148 20.9881 61.4207 20.4482C63.3551 17.8785 65.2949 15.3129 67.2447 12.755C67.5594 12.3417 67.8742 11.9284 68.1985 11.5025C69.0435 10.4461 69.0435 10.4461 70.3998 9.08252Z" fill="white"/>
<path d="M25.6391 108.621C24.0885 110.044 23.2395 110.642 21.1158 110.803C20.4413 110.751 19.7668 110.699 19.0718 110.645C18.3309 110.598 17.59 110.552 16.8266 110.504C15.2724 110.385 13.7182 110.266 12.164 110.147C11.4222 110.1 10.6804 110.054 9.91618 110.006C9.24089 109.953 8.5656 109.901 7.86984 109.847C5.51515 110.017 4.37738 110.488 2.58057 112.03C1.97557 114.14 1.97557 114.14 1.90237 116.12C2.40861 116.1 2.91484 116.079 3.43642 116.058C24.8787 115.205 46.2448 115.417 67.6871 116.12C67.6871 116.345 67.6871 116.57 67.6871 116.802C45.5305 116.802 23.374 116.802 0.545987 116.802C-0.132206 114.757 -0.132206 114.757 0.291665 113.095C1.4473 110.93 2.58626 109.988 4.61515 108.621C6.63797 108.238 6.63797 108.238 8.8565 108.181C9.65948 108.156 10.4625 108.131 11.2898 108.106C12.1225 108.093 12.9552 108.08 13.8131 108.067C14.6485 108.041 15.4838 108.015 16.3444 107.988C23.0425 107.816 23.0425 107.816 25.6391 108.621Z" fill="white"/>
<path d="M14.7472 100.108C15.449 100.105 15.449 100.105 16.165 100.101C17.7073 100.096 19.2488 100.11 20.791 100.125C21.8635 100.127 22.9359 100.128 24.0084 100.127C26.2535 100.129 28.4983 100.141 30.7434 100.159C33.6246 100.182 36.5056 100.187 39.3869 100.186C41.6 100.187 43.8131 100.194 46.0263 100.204C47.089 100.208 48.1517 100.211 49.2143 100.212C50.6968 100.215 52.1789 100.227 53.6612 100.242C54.5054 100.247 55.3497 100.252 56.2195 100.257C58.1923 100.44 58.1923 100.44 59.5487 101.803C58.9841 101.8 58.4195 101.796 57.8378 101.792C55.741 101.781 53.6442 101.772 51.5473 101.766C50.1943 101.761 48.8413 101.752 47.4883 101.743C46.6381 101.741 45.7879 101.739 44.9119 101.737C44.127 101.733 43.3421 101.73 42.5335 101.726C40.5145 101.713 40.5145 101.713 38.5247 102.485C36.7495 102.422 34.9964 102.32 33.2264 102.187C28.2253 101.868 23.2323 101.686 18.2213 101.633C17.575 101.618 16.9287 101.604 16.2627 101.589C15.6581 101.586 15.0534 101.583 14.4303 101.58C13.8936 101.573 13.3569 101.567 12.8039 101.56C11.0222 101.868 10.4537 102.423 9.36243 103.849C9.13863 104.523 8.91482 105.198 8.68424 105.894C9.54186 105.944 9.54186 105.944 10.4168 105.995C11.5315 106.072 11.5315 106.072 12.6686 106.15C13.4082 106.197 14.1478 106.244 14.9098 106.293C16.8226 106.576 16.8226 106.576 18.1789 107.939C16.6387 107.843 15.0987 107.743 13.5588 107.641C12.7011 107.586 11.8435 107.53 10.9599 107.473C8.68424 107.257 8.68424 107.257 6.64966 106.576C6.87394 104.546 7.18949 103.351 8.42186 101.707C10.6099 99.9941 11.9911 100.102 14.7472 100.108Z" fill="white"/>
<path d="M126.012 26.1269C127.085 27.6848 127.085 27.6848 127.919 29.5783C128.203 30.205 128.487 30.8316 128.78 31.4772C128.986 31.9614 129.191 32.4457 129.403 32.9446C128.731 33.2821 128.731 33.2821 128.046 33.6263C128.046 33.1764 128.046 32.7264 128.046 32.2628C127.599 32.0378 127.151 31.8128 126.69 31.581C126.914 31.1311 127.138 30.6811 127.368 30.2175C126.697 29.9925 126.025 29.7675 125.334 29.5357C125.334 28.6358 125.334 27.7359 125.334 26.8087C123.987 26.9905 123.987 26.9905 122.621 27.4904C122.397 28.1654 122.173 28.8403 121.943 29.5357C121.495 29.5357 121.047 29.5357 120.586 29.5357C120.586 30.2107 120.586 30.8856 120.586 31.581C121.258 31.581 121.929 31.581 122.621 31.581C122.621 32.256 122.621 32.9309 122.621 33.6263C123.516 33.1764 124.411 32.7264 125.334 32.2628C125.557 33.1627 125.781 34.0627 126.012 34.9899C125.564 34.9899 125.117 34.9899 124.655 34.9899C124.432 38.3646 124.208 41.7394 123.977 45.2164C123.753 45.2164 123.53 45.2164 123.299 45.2164C123.233 44.8033 123.166 44.3903 123.098 43.9647C122.524 40.7322 121.787 37.8693 120.459 34.862C119.233 31.9308 118.875 29.9249 119.908 26.8087C121.927 25.0687 123.576 25.3081 126.012 26.1269Z" fill="white"/>
<path d="M137.541 17.9458C139.072 19.0072 139.485 19.7023 140.042 21.4825C140.112 21.8903 140.182 22.2981 140.254 22.7182C138.687 22.2682 137.121 21.8183 135.506 21.3547C135.059 23.3795 134.611 25.4044 134.15 27.4906C132.02 25.1634 131.551 23.1284 131.437 19.9911C132.834 17.4306 134.857 17.6086 137.541 17.9458Z" fill="white"/>
<path d="M84.6418 82.0317C85.3132 82.2567 85.9846 82.4817 86.6764 82.7135C86.6764 83.1635 86.6764 83.6134 86.6764 84.077C89.0621 85.0494 91.4619 85.9653 93.8822 86.8467C94.8395 87.1961 94.8395 87.1961 95.8161 87.5525C98.1921 88.4066 99.6987 88.8494 102.275 88.8494C102.275 89.5244 102.275 90.1993 102.275 90.8947C102.684 90.9773 103.093 91.0599 103.515 91.1451C104.057 91.2593 104.599 91.3736 105.157 91.4913C105.692 91.602 106.227 91.7127 106.778 91.8268C108.357 92.2525 109.661 92.8367 111.091 93.6218C108.42 94.6777 106.745 93.8781 104.15 92.8495C102.915 92.3617 102.915 92.3617 101.655 91.8641C101.227 91.6905 100.799 91.517 100.359 91.3381C99.0707 90.8165 97.7779 90.3088 96.4837 89.8028C92.0062 88.0138 87.9397 86.1369 83.9636 83.3953C84.1874 82.9453 84.4112 82.4953 84.6418 82.0317Z" fill="white"/>
<path d="M121.264 61.5791C121.943 63.6244 121.943 63.6244 121.415 64.9214C121.156 65.3792 120.896 65.8371 120.629 66.3089C119.394 68.4926 119.23 69.132 119.23 71.8056C120.349 72.0306 121.468 72.2556 122.621 72.4874C122.845 72.0374 123.068 71.5875 123.299 71.1239C124.187 70.4206 125.09 69.7362 126.012 69.0786C125.8 70.6978 125.8 70.6978 125.333 72.4874C123.135 73.9607 122.46 74.2889 119.908 73.8509C118.297 72.3596 118.297 72.3596 117.195 70.4421C117.105 67.0772 119.461 64.2746 121.264 61.5791Z" fill="white"/>
<path d="M126.012 26.1269C127.085 27.6848 127.085 27.6848 127.919 29.5783C128.203 30.205 128.487 30.8316 128.78 31.4772C128.986 31.9614 129.191 32.4457 129.403 32.9446C128.731 33.2821 128.731 33.2821 128.046 33.6263C128.046 33.1764 128.046 32.7264 128.046 32.2628C127.599 32.0378 127.151 31.8128 126.69 31.581C126.914 31.1311 127.137 30.6811 127.368 30.2175C126.697 29.9925 126.025 29.7675 125.333 29.5357C125.333 28.6358 125.333 27.7359 125.333 26.8087C123.987 26.9905 123.987 26.9905 122.621 27.4904C122.397 28.1654 122.173 28.8403 121.943 29.5357C121.495 29.5357 121.047 29.5357 120.586 29.5357C120.81 30.4357 121.034 31.3356 121.264 32.2628C120.593 32.0378 119.921 31.8128 119.23 31.581C119.399 29.2801 119.399 29.2801 119.908 26.8087C121.927 25.0687 123.576 25.3081 126.012 26.1269Z" fill="white"/>
<path d="M101.597 79.3047C107.475 80.2363 112.954 82.1114 118.552 84.0771C118.104 84.527 117.656 84.977 117.195 85.4406C116.748 85.4406 116.3 85.4406 115.839 85.4406C115.839 84.9906 115.839 84.5407 115.839 84.0771C115.027 83.9786 114.216 83.8802 113.38 83.7788C106.401 82.8863 106.401 82.8863 103.631 81.35C102.96 81.125 102.288 80.9 101.597 80.6682C101.597 80.2183 101.597 79.7683 101.597 79.3047Z" fill="white"/>
<path d="M66.3307 28.1724C66.7783 28.3973 67.2259 28.6223 67.6871 28.8541C67.0089 30.8994 67.0089 30.8994 65.6525 32.2204C64.2119 33.7138 64.0836 34.414 63.6179 36.3536C62.9465 36.5786 62.2751 36.8035 61.5833 37.0353C61.3595 37.4853 61.1357 37.9353 60.9052 38.3989C60.6814 38.8489 60.4575 39.2988 60.227 39.7624C59.5556 39.9874 58.8841 40.2124 58.1924 40.4442C59.2307 37.259 60.9781 34.9753 63.0245 32.3908C63.3419 31.9835 63.6592 31.5761 63.9862 31.1564C64.7641 30.1589 65.5469 29.1652 66.3307 28.1724Z" fill="white"/>
<path d="M25.6392 108.621C24.1975 109.894 23.3079 110.624 21.3733 110.836C20.5423 110.777 20.5423 110.777 19.6944 110.717C19.0912 110.679 18.488 110.642 17.8665 110.603C17.2423 110.554 16.618 110.504 15.9749 110.453C15.3402 110.411 14.7055 110.37 14.0516 110.327C12.4877 110.222 10.9251 110.108 9.36255 109.984C11.9237 108.268 14.141 108.29 17.1194 108.152C17.6374 108.12 18.1553 108.088 18.689 108.055C21.1806 107.922 23.2216 107.922 25.6392 108.621Z" fill="white"/>
<path d="M29.0302 94.9854C29.4778 95.8853 29.9254 96.7852 30.3866 97.7124C32.153 97.5019 33.9191 97.2885 35.685 97.0733C36.1855 97.0139 36.686 96.9546 37.2016 96.8935C39.3166 96.6338 41.2452 96.3464 43.2722 95.6671C42.8246 96.5671 42.377 97.467 41.9159 98.3942C36.9922 98.3942 32.0685 98.3942 26.9956 98.3942C28.352 95.6671 28.352 95.6671 29.0302 94.9854Z" fill="white"/>
<path d="M26.9954 87.4863C27.443 87.7113 27.8906 87.9363 28.3518 88.1681C28.4366 90.1282 28.4366 90.1282 28.3518 92.2587C26.6119 94.0078 25.3156 93.9907 22.9263 94.304C23.8552 91.5803 25.1353 89.6679 26.9954 87.4863Z" fill="white"/>
<path d="M105.666 43.1714C106.113 43.3964 106.561 43.6214 107.022 43.8532C106.376 44.8641 105.725 45.872 105.072 46.8785C104.53 47.7209 104.53 47.7209 103.976 48.5803C102.953 49.9891 102.953 49.9891 101.597 50.6708C101.415 51.2052 101.233 51.7395 101.046 52.29C100.05 54.5035 98.9718 55.0582 96.8494 56.125C97.9262 53.7467 99.3354 51.7479 100.876 49.6482C101.578 48.6885 101.578 48.6885 102.293 47.7094C103.413 46.1935 104.537 44.6803 105.666 43.1714Z" fill="white"/>
<path d="M48.0195 64.9878C47.0905 67.7115 45.8105 69.6239 43.9503 71.8055C43.0551 71.5805 42.1599 71.3555 41.2375 71.1237C41.7558 70.3536 42.2797 69.5873 42.8059 68.8227C43.097 68.3956 43.3881 67.9685 43.6881 67.5284C44.9297 65.9743 45.9708 64.9878 48.0195 64.9878Z" fill="white"/>
<path d="M41.9158 25.4453C43.2722 27.4906 43.2722 27.4906 43.5265 29.2376C43.7892 30.9678 43.7892 30.9678 45.1372 31.8369C47.001 32.3573 48.2092 32.0964 50.0541 31.5812C49.3827 32.5937 49.3827 32.5937 48.6978 33.6265C44.648 34.0707 44.648 34.0707 42.6788 32.8169C41.4034 30.7513 41.0854 28.981 41.5343 26.5958C41.6602 26.2161 41.7861 25.8365 41.9158 25.4453Z" fill="white"/>
<path d="M76.5036 14.5371C79.9216 14.8403 81.5062 16.387 83.9637 18.6277C82.904 19.0964 82.904 19.0964 81.2509 19.3095C79.6543 18.6619 78.0709 17.9804 76.5036 17.2642C75.8322 17.2642 75.1608 17.2642 74.469 17.2642C75.1404 16.3642 75.8118 15.4643 76.5036 14.5371Z" fill="white"/>
<path d="M123.977 45.2163C124.201 45.2163 124.425 45.2163 124.655 45.2163C125.427 51.1416 125.816 55.6861 122.621 60.897C122.173 60.672 121.726 60.447 121.264 60.2152C121.472 59.658 121.681 59.1008 121.895 58.5268C122.714 55.8162 123.076 53.221 123.384 50.4148C123.442 49.913 123.501 49.4112 123.561 48.8941C123.704 47.6686 123.841 46.4425 123.977 45.2163Z" fill="white"/>
<path d="M150.427 9.76446C150.427 10.4394 150.427 11.1144 150.427 11.8098C150.007 11.6832 149.587 11.5567 149.155 11.4263C147.686 10.9665 147.686 10.9665 146.358 11.8098C145.671 12.9411 144.993 14.0772 144.323 15.2186C144.099 15.2186 143.875 15.2186 143.645 15.2186C143.475 13.3011 143.475 13.3011 143.645 11.128C145.729 8.63004 147.45 9.01636 150.427 9.76446Z" fill="white"/>
<path d="M94.8149 57.4883C95.4863 57.7133 96.1577 57.9382 96.8495 58.17C96.4018 58.17 95.9542 58.17 95.4931 58.17C95.2203 58.7395 95.2203 58.7395 94.942 59.3205C94.1367 60.8971 94.1367 60.8971 93.0346 62.5589C91.9976 64.5018 91.9319 65.5477 92.1021 67.7148C92.1021 68.3898 92.1021 69.0647 92.1021 69.7601C91.0424 69.0357 91.0424 69.0357 90.0675 67.7148C89.9809 63.2719 92.0867 60.7173 94.8149 57.4883Z" fill="white"/>
<path d="M69.7216 10.4463C70.6168 10.6713 71.5121 10.8963 72.4344 11.1281C71.841 14.3665 71.841 14.3665 71.078 15.9004C70.1828 15.6755 69.2876 15.4505 68.3652 15.2187C68.9587 11.9803 68.9587 11.9803 69.7216 10.4463Z" fill="white"/>
<path d="M94.8148 49.9888C95.4862 50.4387 96.1576 50.8887 96.8493 51.3523C95.0589 53.8271 93.2685 56.3019 91.4238 58.8518C91.2 57.9518 90.9762 57.0519 90.7456 56.1247C91.1932 56.1247 91.6408 56.1247 92.102 56.1247C92.102 55.2247 92.102 54.3248 92.102 53.3976C93.0769 52.2897 93.0769 52.2897 94.1366 51.3523C94.3604 50.9023 94.5842 50.4524 94.8148 49.9888Z" fill="white"/>
<path d="M151.783 58.8521C152.007 58.8521 152.231 58.8521 152.461 58.8521C152.376 59.5665 152.376 59.5665 152.289 60.2955C152.22 60.9159 152.151 61.5364 152.08 62.1757C152.009 62.7926 151.938 63.4096 151.865 64.0452C151.65 65.681 151.65 65.681 152.461 67.0333C151.79 67.3707 151.79 67.3707 151.105 67.715C150.336 69.09 150.336 69.09 149.748 70.4421C149.588 66.6397 150.034 63.1943 151.105 59.5338C151.329 59.3088 151.552 59.0839 151.783 58.8521Z" fill="white"/>
<path d="M115.161 37.7168C116.559 38.7821 116.559 38.7821 117.873 40.4439C117.811 43.8582 116.809 46.3536 115.161 49.3069C114.495 47.2257 114.495 45.9339 115.161 43.8527C115.608 43.8527 116.056 43.8527 116.517 43.8527C116.069 41.8279 115.622 39.803 115.161 37.7168Z" fill="white"/>
<path d="M151.105 31.5811C152.769 33.2535 152.681 33.9187 152.843 36.2256C153.033 38.5889 153.281 40.8566 153.818 43.1711C153.146 42.9461 152.475 42.7211 151.783 42.4893C151.559 38.8896 151.336 35.2899 151.105 31.5811Z" fill="white"/>
<path d="M147.036 20.6729C149.523 22.3395 149.59 23.3222 150.427 26.127C150.825 26.8863 150.825 26.8863 151.232 27.661C151.414 28.0547 151.596 28.4484 151.783 28.8541C151.559 29.304 151.335 29.754 151.105 30.2176C150.657 30.2176 150.21 30.2176 149.748 30.2176C149.292 29.0118 148.841 27.8042 148.392 26.5957C148.14 25.9234 147.888 25.2511 147.629 24.5584C147.036 22.7182 147.036 22.7182 147.036 20.6729Z" fill="white"/>
<path d="M90.7456 49.9888C90.7456 51.125 90.7456 52.2613 90.7456 53.3976C90.298 53.3976 89.8504 53.3976 89.3892 53.3976C89.3892 54.0726 89.3892 54.7475 89.3892 55.4429C88.9416 55.4429 88.494 55.4429 88.0328 55.4429C88.0328 55.8929 88.0328 56.3428 88.0328 56.8065C87.3614 57.1439 87.3614 57.1439 86.6764 57.4882C86.4526 58.1632 86.2288 58.8381 85.9982 59.5335C85.5506 59.5335 85.103 59.5335 84.6418 59.5335C85.5569 56.9178 86.729 54.9986 88.4567 52.8437C89.0992 52.0356 89.0992 52.0356 89.7548 51.2112C90.0817 50.8078 90.4087 50.4044 90.7456 49.9888Z" fill="white"/>
<path d="M41.2376 78.623C41.6852 79.073 42.1328 79.523 42.594 79.9866C42.1464 80.4366 41.6988 80.8865 41.2376 81.3501C41.0557 81.772 40.8739 82.1938 40.6866 82.6284C39.6311 84.527 38.2158 85.5261 36.4902 86.8043C36.4902 84.2112 37.2619 83.5475 38.8639 81.5632C39.3045 81.0121 39.7451 80.4611 40.1991 79.8934C40.5418 79.4742 40.8845 79.055 41.2376 78.623Z" fill="white"/>
<path d="M135.506 21.3545C135.059 23.3793 134.611 25.4042 134.15 27.4904C132.371 25.4034 132.115 24.9462 132.115 22.0363C134.15 21.3545 134.15 21.3545 135.506 21.3545Z" fill="white"/>
<path d="M137.541 17.9457C137.765 18.3956 137.989 18.8456 138.219 19.3092C137.772 19.7592 137.324 20.2091 136.863 20.6727C136.443 20.4478 136.024 20.2228 135.591 19.991C134.211 19.2124 134.211 19.2124 132.794 19.3092C132.57 20.6591 132.346 22.009 132.115 23.3998C131.892 23.3998 131.668 23.3998 131.437 23.3998C131.611 21.8023 131.839 20.2102 132.115 18.6274C133.953 17.704 135.513 17.9013 137.541 17.9457Z" fill="white"/>
<path d="M123.977 26.127C124.648 26.127 125.32 26.127 126.012 26.127C127.131 28.3768 128.25 30.6266 129.403 32.9446C128.731 33.2821 128.731 33.2821 128.046 33.6264C128.046 33.1764 128.046 32.7265 128.046 32.2629C127.599 32.0379 127.151 31.8129 126.69 31.5811C126.914 31.1311 127.137 30.6812 127.368 30.2176C126.697 29.9926 126.025 29.7676 125.333 29.5358C125.333 28.6359 125.333 27.7359 125.333 26.8087C124.886 26.5837 124.438 26.3588 123.977 26.127Z" fill="white"/>
<path d="M33.7774 88.168C34.4556 90.2133 34.4556 90.2133 33.947 91.5768C33.0975 92.9431 32.295 93.955 31.0646 94.9857C30.617 94.9857 30.1694 94.9857 29.7083 94.9857C30.8284 92.5459 32.2738 90.3849 33.7774 88.168Z" fill="white"/>
<path d="M52.0886 56.125C52.3124 56.575 52.5362 57.0249 52.7668 57.4885C52.0954 58.501 52.0954 58.501 51.4104 59.5338C50.9628 59.5338 50.5152 59.5338 50.0541 59.5338C49.8722 59.9557 49.6904 60.3775 49.503 60.8122C48.6977 62.2609 48.6977 62.2609 46.6631 63.6245C47.5879 61.5845 48.6631 60.0177 50.1388 58.3407C50.5043 57.9224 50.8697 57.5041 51.2462 57.0731C51.6632 56.6038 51.6632 56.6038 52.0886 56.125Z" fill="white"/>
<path d="M102.953 33.6265C104.649 34.4787 104.649 34.4787 106.344 35.6718C106.344 36.5717 106.344 37.4716 106.344 38.3988C105.225 37.2739 104.106 36.149 102.953 34.99C102.729 35.665 102.505 36.3399 102.275 37.0353C101.827 36.8103 101.38 36.5853 100.918 36.3535C101.59 35.4536 102.261 34.5537 102.953 33.6265Z" fill="white"/>
<path d="M122.621 35.6719C124.655 38.3989 124.655 38.3989 124.706 40.1566C124.619 40.7578 124.533 41.3589 124.443 41.9782C124.322 42.8905 124.322 42.8905 124.197 43.8211C124.125 44.2816 124.052 44.7422 123.977 45.2166C123.753 45.2166 123.53 45.2166 123.299 45.2166C123.075 42.0669 122.851 38.9171 122.621 35.6719Z" fill="white"/>
<path d="M156.53 68.3965C156.754 68.3965 156.978 68.3965 157.209 68.3965C156.985 70.4213 156.761 72.4462 156.53 74.5324C156.083 74.5324 155.635 74.5324 155.174 74.5324C155.004 70.6975 155.004 70.6975 156.53 68.3965Z" fill="white"/>
<path d="M76.5036 14.5371C78.1143 14.7502 78.1143 14.7502 79.8945 15.2189C80.3421 15.8938 80.7898 16.5688 81.2509 17.2642C79.6843 16.8142 78.1177 16.3642 76.5036 15.9006C76.2798 16.5756 76.056 17.2505 75.8254 17.946C75.3778 17.721 74.9302 17.496 74.469 17.2642C75.1404 16.3642 75.8118 15.4643 76.5036 14.5371Z" fill="white"/>
<path d="M96.8495 43.1714C97.5209 43.1714 98.1923 43.1714 98.8841 43.1714C98.6603 44.0713 98.4365 44.9713 98.2059 45.8985C97.0869 46.1234 95.9679 46.3484 94.8149 46.5802C95.2625 46.3552 95.7102 46.1303 96.1713 45.8985C96.6136 44.5181 96.6136 44.5181 96.8495 43.1714Z" fill="white"/>
</svg>
