<svg width="70" height="51" viewBox="0 0 70 51" fill="none" xmlns="http://www.w3.org/2000/svg">
<path d="M33.2624 6.33643C34.3789 6.49762 35.0406 6.76804 35.9173 7.47872C36.1342 7.65201 36.3511 7.82531 36.5746 8.00386C36.9146 8.28177 36.9146 8.28177 37.2615 8.56528C37.734 8.94397 38.2066 9.32241 38.6794 9.70061C38.9105 9.8865 39.1415 10.0724 39.3796 10.2639C40.2894 10.9896 41.2142 11.6937 42.1452 12.3915C42.4258 12.6022 42.7063 12.8129 42.9953 13.03C43.2861 13.2472 43.2861 13.2472 43.5827 13.4688C43.4078 14.3557 43.1551 14.9315 42.6094 15.6466C42.4687 15.8331 42.328 16.0196 42.183 16.2117C42.0307 16.4098 41.8783 16.608 41.7214 16.8121C41.4011 17.2354 41.0809 17.6587 40.7608 18.082C40.5949 18.2999 40.4291 18.5178 40.2583 18.7423C39.4249 19.8399 38.6011 20.9448 37.7775 22.0499C37.6252 22.253 37.4728 22.4561 37.3159 22.6654C36.5512 23.6717 36.5512 23.6717 35.9162 24.7617C34.4339 24.6258 33.5133 23.8724 32.3778 22.9786C31.1589 23.9692 31.0957 24.725 30.9035 26.2476C30.5349 26.8233 30.5349 26.8233 30.0189 27.1391C29.2264 27.1948 29.2264 27.1948 28.5445 27.1391C28.4477 27.4315 28.4477 27.4315 28.3489 27.7298C27.8179 28.9359 27.1043 29.973 26.3676 31.0605C26.1318 31.4118 26.1318 31.4118 25.8912 31.7702C25.5583 32.2657 25.2246 32.7608 24.8904 33.2554C24.3861 34.0017 23.8839 34.7494 23.3821 35.4973C22.7423 36.4505 22.0964 37.3989 21.4461 38.3448C20.9183 39.1148 20.4144 39.8891 19.939 40.6928C18.6551 42.7542 18.6551 42.7542 17.4362 43.1375C16.5434 43.2115 15.7246 43.1783 14.8332 43.094C14.5345 43.0793 14.2357 43.0645 13.9279 43.0493C13.1954 43.011 12.4674 42.9576 11.7371 42.8897C12.1534 41.9847 12.6476 41.229 13.2506 40.4391C13.4375 40.1933 13.6244 39.9474 13.8169 39.6941C14.0185 39.4309 14.2201 39.1676 14.4278 38.8963C14.7399 38.4859 14.7399 38.4859 15.0583 38.0672C15.7196 37.1975 16.3821 36.3288 17.0447 35.4602C17.8936 34.3466 18.7411 33.232 19.588 32.1169C19.8754 31.7408 19.8754 31.7408 20.1686 31.3572C21.356 29.7937 22.4697 28.1972 23.5318 26.5447C21.2214 29.2772 18.944 32.0358 16.6868 34.8131C16.1617 35.4583 15.6346 36.1018 15.1074 36.7452C14.7701 37.1588 14.433 37.5724 14.0961 37.9862C13.8543 38.2815 13.8543 38.2815 13.6076 38.5827C12.7593 39.6313 12.0251 40.676 11.3501 41.8496C10.7379 42.844 10.7379 42.844 9.92992 43.0487C9.26762 43.0569 9.26762 43.0569 8.19873 42.8897C8.66416 41.4521 9.47436 40.3804 10.3734 39.1935C10.5297 38.9852 10.6861 38.7769 10.8471 38.5624C12.1812 36.8033 13.592 35.1207 15.0359 33.453C15.7933 32.5778 16.5233 31.683 17.2474 30.7796C18.0923 29.7298 18.961 28.7139 19.8644 27.7149C22.6867 24.8644 22.6867 24.8644 23.8267 21.1955C24.4164 20.6011 24.4164 20.6011 25.1167 20.5268C26.2373 20.2041 26.5079 19.5074 27.0702 18.5208C26.8877 18.4289 26.7053 18.337 26.5173 18.2422C26.1119 18.0379 25.7064 17.8336 25.301 17.6293C25.7736 16.0539 26.7845 14.9166 27.7889 13.6545C29.6714 11.2555 31.4849 8.81514 33.2624 6.33643Z" fill="white"/>
<path d="M6.39784 43.6278C6.70084 43.6247 6.70084 43.6247 7.00996 43.6215C7.67627 43.6163 8.3422 43.6197 9.00851 43.6237C9.47268 43.6229 9.93684 43.6218 10.401 43.6203C11.3734 43.6185 12.3457 43.6211 13.3181 43.6266C14.5629 43.6334 15.8074 43.6295 17.0521 43.6224C18.0106 43.6181 18.969 43.6195 19.9275 43.6225C20.3864 43.6233 20.8452 43.6224 21.304 43.6196C21.9464 43.6166 22.5883 43.6212 23.2306 43.6278C23.5957 43.6287 23.9607 43.6297 24.3369 43.6307C25.4758 43.809 25.9625 44.1631 26.7754 44.9703C27.1747 45.7753 27.0894 46.459 27.0702 47.3478C27.3987 47.3754 27.3987 47.3754 27.7337 47.4035C28.8154 47.7256 29.1404 48.1722 29.724 49.1309C29.8162 49.9481 29.8162 49.9481 29.724 50.6168C29.1543 51.191 28.298 50.9497 27.5399 50.9509C27.268 50.9499 26.9961 50.9488 26.716 50.9477C26.2888 50.9478 26.2888 50.9478 25.8531 50.9478C24.9069 50.9476 23.9608 50.9453 23.0147 50.943C22.3606 50.9424 21.7065 50.942 21.0525 50.9417C19.3272 50.9406 17.602 50.9377 15.8767 50.9344C14.1177 50.9313 12.3587 50.93 10.5998 50.9285C7.14563 50.9253 3.69151 50.9202 0.237386 50.914C-0.0574809 50.0224 -0.0574809 50.0224 0.126811 49.298C0.638928 48.3362 1.0925 47.9403 2.00659 47.3478C2.82311 47.1692 3.62406 47.1414 4.45766 47.1249C4.78522 47.1117 4.78522 47.1117 5.11939 47.0982C5.65424 47.0773 6.18934 47.0633 6.72445 47.0506C5.45947 46.8545 4.19449 46.6583 2.89118 46.4562C3.35207 44.1337 4.09245 43.6338 6.39784 43.6278Z" fill="white"/>
<path d="M32.3778 27.4365C33.3754 27.7717 33.5505 28.0201 34.1839 28.8296C37.3898 32.615 42.399 33.813 46.9571 35.1547C51.5138 36.5032 55.6024 38.2044 59.2107 41.404C59.5704 41.6776 59.5704 41.6776 59.9375 41.9566C60.7981 42.689 61.4399 43.4736 62.1225 44.3758C62.3589 44.6823 62.5953 44.9888 62.8389 45.3045C63.3388 46.1589 63.3388 46.1589 63.2742 46.7582C62.8832 47.7591 62.0101 48.2971 61.1826 48.9264C61.011 49.0653 60.8394 49.2042 60.6625 49.3472C59.4268 50.3021 59.4268 50.3021 58.5737 50.3705C57.7422 49.8368 57.321 49.0485 56.8149 48.2206C54.1923 44.2111 50.1403 42.2053 45.7919 40.5345C45.493 40.4196 45.493 40.4196 45.1879 40.3023C44.1781 39.9161 43.1662 39.5372 42.1502 39.1679C38.7144 37.8981 35.46 36.2484 33.7231 32.8473C32.9177 31.0279 32.4764 29.4245 32.3778 27.4365Z" fill="white"/>
<path d="M64.4999 3.90332C65.9794 4.48151 66.5234 5.86882 67.1746 7.27643C69.8844 13.8422 70.8024 21.0273 69.2362 28.0307C69.164 28.3755 69.0917 28.7203 69.0173 29.0755C68.1672 32.6999 66.7091 36.3014 64.5183 39.3236C63.6842 39.7439 63.0812 39.7156 62.1594 39.6208C61.5881 39.1193 61.5881 39.1193 61.2748 38.432C61.3989 37.0412 62.0569 35.9111 62.6938 34.6987C66.3862 27.4186 67.0003 19.4478 64.5781 11.6504C64.1257 10.2663 63.6333 8.94126 62.9518 7.65523C62.435 6.59418 62.2399 6.01147 62.4542 4.85058C63.1094 4.06328 63.4851 3.9686 64.4999 3.90332Z" fill="white"/>
<path d="M59.8004 7.82249C62.2359 9.77743 63.0715 14.3779 63.5139 17.2998C64.1947 23.4391 63.2881 30.1126 59.5055 35.1631C58.9204 35.7029 58.9204 35.7029 58.3261 36.0547C57.3862 35.8504 57.3862 35.8504 56.5569 35.4603C56.1331 34.6062 56.1778 34.0359 56.262 33.0829C56.6073 32.3287 56.9642 31.6298 57.3678 30.9097C60.1389 25.6305 60.3923 20.097 58.9158 14.3605C58.5638 13.4069 58.1746 12.4839 57.7617 11.5558C57.3431 10.5603 57.1466 9.79551 57.1466 8.71403C57.7539 7.5979 58.6336 7.6755 59.8004 7.82249Z" fill="white"/>
<path d="M28.8394 0.0957927C29.5397 0.578712 29.5397 0.578712 30.0189 1.28452C30.1608 2.67618 29.9692 3.35292 29.1112 4.43974C28.9163 4.6915 28.7213 4.94326 28.5205 5.20265C28.3095 5.46652 28.0985 5.7304 27.8811 6.00227C27.4486 6.55739 27.0163 7.11267 26.5841 7.6681C26.368 7.9433 26.1518 8.2185 25.929 8.50204C25.023 9.66537 24.1475 10.8506 23.2738 12.0388C21.845 13.9802 21.845 13.9802 21.1729 14.6577C19.3679 14.823 19.3679 14.823 18.5559 14.3048C18.0114 13.4205 17.8516 12.6179 18.086 11.5999C19.4027 8.40011 24.3949 -1.05011 28.8394 0.0957927Z" fill="white"/>
<path d="M50.0698 16.1437C50.7885 16.7566 50.7885 16.7566 51.2493 17.6296C51.1567 19.2074 50.7017 20.4557 49.9592 21.8272C49.8566 22.0188 49.754 22.2103 49.6483 22.4077C47.9263 25.4911 45.3328 28.7371 42.4033 30.7055C41.2537 30.8319 40.5937 30.8659 39.602 30.2412C38.9651 29.1981 39.1837 28.6126 39.4546 27.4365C40.004 26.5554 40.004 26.5554 40.7262 25.672C40.9942 25.3373 41.2618 25.0021 41.529 24.6667C41.7418 24.4028 41.7418 24.4028 41.9588 24.1336C42.7454 23.1418 43.4939 22.1212 44.2462 21.1029C44.6684 20.534 45.0908 19.9652 45.5138 19.3968C45.8181 18.9853 46.12 18.5719 46.4202 18.1573C46.577 17.9422 46.7338 17.727 46.8954 17.5054C47.0374 17.3088 47.1795 17.1122 47.3259 16.9096C48.0987 15.9686 48.9181 16.0044 50.0698 16.1437Z" fill="white"/>
<path d="M54.7877 11.3886C55.298 12.135 55.298 12.135 55.7276 13.0788C55.8717 13.3864 56.0157 13.694 56.1642 14.011C57.9083 18.2019 58.0289 23.1305 56.5569 27.4364C54.9847 31.2664 54.9847 31.2664 53.6083 32.1913C52.8895 32.3213 52.8895 32.3213 52.1339 32.1913C51.4336 31.5412 51.4336 31.5412 50.9545 30.7053C51.0695 29.5897 51.4489 28.7349 51.9681 27.7521C53.7678 24.2186 54.082 20.5565 53.0185 16.7378C52.8105 16.2211 52.5955 15.7071 52.3735 15.1962C51.8405 13.9185 51.6847 13.0441 52.1339 11.6858C53.0106 10.9284 53.7322 11.0199 54.7877 11.3886Z" fill="white"/>
<path d="M44.7622 14.6577C45.4993 15.0292 45.4993 15.0292 46.2365 15.5493C46.2365 16.9229 45.8355 17.4574 45.057 18.5025C44.8675 18.7634 44.8675 18.7634 44.6742 19.0297C42.6776 21.7612 40.6205 24.4488 38.57 27.1393C37.1325 26.3592 37.1325 26.3592 36.8008 25.3562C37.1041 24.7933 37.1041 24.7933 37.5817 24.1594C37.7555 23.9256 37.9292 23.6917 38.1082 23.4508C38.2971 23.2031 38.486 22.9554 38.6806 22.7002C38.8698 22.4471 39.059 22.194 39.254 21.9333C39.6343 21.4252 40.0157 20.9181 40.3985 20.412C40.8537 19.8093 41.3052 19.2043 41.7536 18.5965C42.7361 17.2658 43.729 15.949 44.7622 14.6577Z" fill="white"/>
<path d="M30.6086 3.95898C31.3458 4.33046 31.3458 4.33046 32.0829 4.85053C32.0829 6.18823 31.9301 6.38421 31.1442 7.39514C30.9447 7.65497 30.7452 7.91479 30.5397 8.1825C30.218 8.59264 30.218 8.59264 29.8899 9.01106C29.4559 9.5728 29.022 10.1347 28.5883 10.6966C28.3776 10.9681 28.167 11.2395 27.9499 11.5191C27.0086 12.7439 26.1096 13.9986 25.2123 15.2565C24.7113 15.8462 24.7113 15.8462 23.8267 16.1434C23.1817 15.7162 23.1817 15.7162 22.6472 15.2519C22.8104 13.9713 23.5938 13.0736 24.3427 12.0757C24.4843 11.8843 24.6258 11.6929 24.7717 11.4957C25.2406 10.8637 25.7127 10.2343 26.1856 9.60542C26.3569 9.37701 26.5282 9.1486 26.7047 8.91326C27.5457 7.79312 28.3891 6.6748 29.2368 5.55982C29.3737 5.37965 29.5105 5.19948 29.6515 5.01385C30.0189 4.55335 30.0189 4.55335 30.6086 3.95898Z" fill="white"/>
<path d="M11.1474 47.3475C10.4733 47.9679 10.1041 48.2287 9.18078 48.2988C8.88751 48.276 8.59424 48.2532 8.29208 48.2297C7.96994 48.2094 7.64781 48.1891 7.31591 48.1682C6.64017 48.1165 5.96443 48.0646 5.2887 48.0127C4.96619 47.9924 4.64367 47.9721 4.31138 47.9511C4.01778 47.9283 3.72417 47.9056 3.42167 47.8821C2.39789 47.9562 1.90321 48.1613 1.12199 48.8334C0.858943 49.7534 0.858943 49.7534 0.827119 50.6165C1.04722 50.6075 1.26732 50.5985 1.4941 50.5892C10.8168 50.2177 20.1064 50.3098 29.4292 50.6165C29.4292 50.7146 29.4292 50.8126 29.4292 50.9137C19.7959 50.9137 10.1626 50.9137 0.237386 50.9137C-0.0574809 50.0221 -0.0574809 50.0221 0.126811 49.2977C0.629259 48.354 1.12446 47.9434 2.00659 47.3475C2.88607 47.1805 2.88607 47.1805 3.85065 47.1559C4.19978 47.145 4.5489 47.1341 4.9086 47.1229C5.27065 47.1173 5.6327 47.1118 6.00571 47.106C6.3689 47.0947 6.73209 47.0834 7.10628 47.0718C10.0185 46.9966 10.0185 46.9966 11.1474 47.3475Z" fill="white"/>
<path d="M6.41193 43.6372C6.71706 43.6355 6.71706 43.6355 7.02835 43.6337C7.69893 43.6315 8.36912 43.6379 9.03966 43.6446C9.50595 43.6453 9.97223 43.6455 10.4385 43.6454C11.4146 43.6463 12.3907 43.6512 13.3668 43.6592C14.6195 43.6693 15.8721 43.6716 17.1248 43.6711C18.0871 43.6713 19.0493 43.6746 20.0115 43.6789C20.4735 43.6808 20.9356 43.6819 21.3976 43.6824C22.0422 43.6837 22.6865 43.6888 23.331 43.6952C23.6981 43.6975 24.0651 43.6997 24.4433 43.7021C25.3011 43.7815 25.3011 43.7815 25.8908 44.3759C25.6454 44.3744 25.3999 44.3728 25.147 44.3712C24.2353 44.3661 23.3236 44.3624 22.412 44.3596C21.8237 44.3574 21.2354 44.3536 20.6472 44.3498C20.2775 44.3488 19.9079 44.3479 19.527 44.3469C19.1857 44.3453 18.8445 44.3438 18.4929 44.3422C17.6151 44.3364 17.6151 44.3364 16.75 44.6731C15.9781 44.6458 15.2159 44.601 14.4463 44.5431C12.2719 44.4041 10.1011 44.3246 7.9224 44.3016C7.64138 44.2953 7.36037 44.289 7.07084 44.2825C6.80793 44.2812 6.54502 44.2798 6.27414 44.2784C6.04078 44.2756 5.80742 44.2728 5.56699 44.27C4.79234 44.4041 4.54515 44.6461 4.0707 45.2675C3.9734 45.5617 3.87609 45.8559 3.77584 46.159C4.14871 46.1808 4.14871 46.1808 4.52913 46.2031C5.01376 46.2364 5.01376 46.2364 5.50818 46.2704C5.82974 46.2911 6.15131 46.3118 6.48262 46.3331C7.31423 46.4562 7.31423 46.4562 7.90397 47.0505C7.23428 47.0086 6.56471 46.965 5.89519 46.9205C5.52231 46.8964 5.14943 46.8723 4.76525 46.8474C3.77584 46.7534 3.77584 46.7534 2.89124 46.4562C2.98875 45.5717 3.12595 45.0508 3.66176 44.3339C4.61306 43.5873 5.21361 43.6344 6.41193 43.6372Z" fill="white"/>
<path d="M54.7877 11.3886C55.2542 12.0677 55.2542 12.0677 55.617 12.893C55.7405 13.1662 55.8641 13.4393 55.9913 13.7207C56.0807 13.9318 56.17 14.1429 56.262 14.3604C55.9701 14.5075 55.9701 14.5075 55.6723 14.6575C55.6723 14.4614 55.6723 14.2653 55.6723 14.0632C55.4777 13.9651 55.2831 13.867 55.0825 13.766C55.1798 13.5699 55.2772 13.3737 55.3774 13.1716C55.0855 13.0736 54.7936 12.9755 54.4928 12.8745C54.4928 12.4822 54.4928 12.0899 54.4928 11.6857C53.9075 11.765 53.9075 11.765 53.3133 11.9829C53.216 12.2771 53.1187 12.5713 53.0185 12.8745C52.8239 12.8745 52.6293 12.8745 52.4287 12.8745C52.4287 13.1687 52.4287 13.4629 52.4287 13.766C52.7207 13.766 53.0126 13.766 53.3133 13.766C53.3133 14.0602 53.3133 14.3544 53.3133 14.6575C53.7026 14.4614 54.0918 14.2653 54.4928 14.0632C54.5901 14.4555 54.6874 14.8477 54.7877 15.2519C54.5931 15.2519 54.3985 15.2519 54.1979 15.2519C54.1006 16.723 54.0033 18.194 53.9031 19.7096C53.8058 19.7096 53.7085 19.7096 53.6082 19.7096C53.5793 19.5296 53.5504 19.3495 53.5207 19.164C53.2712 17.755 52.9508 16.507 52.3735 15.1962C51.8404 13.9185 51.6846 13.0441 52.1339 11.6857C53.0118 10.9273 53.7286 11.0317 54.7877 11.3886Z" fill="white"/>
<path d="M59.8004 7.82249C60.466 8.28515 60.6457 8.58812 60.8877 9.36412C60.9181 9.54187 60.9485 9.71962 60.9799 9.90276C60.2987 9.70662 59.6176 9.51048 58.9158 9.3084C58.7212 10.191 58.5266 11.0737 58.3261 11.983C57.4001 10.9686 57.1959 10.0816 57.1466 8.71403C57.7539 7.5979 58.6336 7.6755 59.8004 7.82249Z" fill="white"/>
<path d="M36.8008 35.7573C37.0928 35.8554 37.3847 35.9535 37.6854 36.0545C37.6854 36.2506 37.6854 36.4468 37.6854 36.6489C38.7227 37.0727 39.7661 37.472 40.8184 37.8562C41.2346 38.0084 41.2346 38.0084 41.6592 38.1638C42.6923 38.5361 43.3473 38.7291 44.4674 38.7291C44.4674 39.0233 44.4674 39.3176 44.4674 39.6207C44.6453 39.6567 44.8232 39.6927 45.0064 39.7298C45.2421 39.7796 45.4778 39.8294 45.7206 39.8807C45.9532 39.929 46.1858 39.9772 46.4255 40.027C47.1118 40.2125 47.6786 40.4672 48.3006 40.8094C47.1394 41.2697 46.4109 40.9211 45.2829 40.4728C44.7458 40.2601 44.7458 40.2601 44.1979 40.0432C44.0119 39.9676 43.8259 39.8919 43.6343 39.814C43.0743 39.5866 42.5122 39.3653 41.9495 39.1447C40.0027 38.3649 38.2347 37.5468 36.506 36.3517C36.6033 36.1555 36.7006 35.9594 36.8008 35.7573Z" fill="white"/>
<path d="M52.7237 26.8423C53.0185 27.7338 53.0185 27.7338 52.7893 28.2992C52.6764 28.4988 52.5635 28.6983 52.4472 28.904C51.9104 29.8558 51.8391 30.1346 51.8391 31.3C52.3256 31.3981 52.8121 31.4961 53.3134 31.5972C53.4107 31.401 53.508 31.2049 53.6083 31.0028C53.9943 30.6963 54.387 30.3979 54.7877 30.1113C54.6956 30.8171 54.6956 30.8171 54.4929 31.5972C53.537 32.2394 53.2435 32.3825 52.1339 32.1915C51.4336 31.5415 51.4336 31.5415 50.9545 30.7056C50.9151 29.2389 51.9397 28.0172 52.7237 26.8423Z" fill="white"/>
<path d="M54.7877 11.3886C55.2541 12.0677 55.2541 12.0677 55.617 12.893C55.7405 13.1662 55.864 13.4393 55.9913 13.7207C56.0806 13.9318 56.17 14.1429 56.262 14.3604C55.9701 14.5075 55.9701 14.5075 55.6723 14.6575C55.6723 14.4614 55.6723 14.2653 55.6723 14.0632C55.4776 13.9651 55.283 13.867 55.0825 13.766C55.1798 13.5699 55.2771 13.3737 55.3774 13.1716C55.0855 13.0736 54.7936 12.9755 54.4928 12.8745C54.4928 12.4822 54.4928 12.0899 54.4928 11.6857C53.9075 11.765 53.9075 11.765 53.3133 11.9829C53.216 12.2771 53.1187 12.5713 53.0185 12.8745C52.8238 12.8745 52.6292 12.8745 52.4287 12.8745C52.526 13.2667 52.6233 13.659 52.7236 14.0632C52.4317 13.9651 52.1398 13.867 51.839 13.766C51.9127 12.763 51.9127 12.763 52.1339 11.6857C53.0118 10.9273 53.7285 11.0317 54.7877 11.3886Z" fill="white"/>
<path d="M44.1725 34.5688C46.7284 34.9749 49.1105 35.7923 51.5441 36.6491C51.3495 36.8453 51.1549 37.0414 50.9544 37.2435C50.7598 37.2435 50.5652 37.2435 50.3647 37.2435C50.3647 37.0473 50.3647 36.8512 50.3647 36.6491C50.0119 36.6062 49.6592 36.5633 49.2958 36.5191C46.2614 36.1301 46.2614 36.1301 45.0571 35.4604C44.7652 35.3623 44.4732 35.2643 44.1725 35.1632C44.1725 34.9671 44.1725 34.7709 44.1725 34.5688Z" fill="white"/>
<path d="M28.8394 12.2803C29.034 12.3783 29.2286 12.4764 29.4292 12.5775C29.1343 13.469 29.1343 13.469 28.5446 14.0448C27.9182 14.6958 27.8624 15.001 27.66 15.8464C27.368 15.9445 27.0761 16.0426 26.7754 16.1436C26.6781 16.3398 26.5807 16.5359 26.4805 16.738C26.3832 16.9341 26.2859 17.1303 26.1856 17.3324C25.8937 17.4304 25.6018 17.5285 25.301 17.6295C25.7524 16.2411 26.5122 15.2456 27.4019 14.1191C27.5399 13.9415 27.6779 13.764 27.8201 13.581C28.1583 13.1462 28.4987 12.7131 28.8394 12.2803Z" fill="white"/>
<path d="M11.1475 47.3473C10.5207 47.9023 10.1339 48.2207 9.29275 48.3128C8.93142 48.2871 8.93142 48.2871 8.56279 48.2609C8.30052 48.2447 8.03825 48.2284 7.76803 48.2116C7.49664 48.19 7.22524 48.1683 6.94563 48.146C6.66967 48.1278 6.39372 48.1096 6.1094 48.0909C5.42942 48.0454 4.75005 47.9956 4.07068 47.9417C5.18423 47.1935 6.14825 47.2033 7.44321 47.143C7.66843 47.1291 7.89364 47.1151 8.12567 47.1007C9.20896 47.0427 10.0964 47.0427 11.1475 47.3473Z" fill="white"/>
<path d="M12.6218 41.4038C12.8164 41.7961 13.011 42.1884 13.2115 42.5925C13.9795 42.5008 14.7474 42.4077 15.5152 42.3139C15.7328 42.2881 15.9504 42.2622 16.1746 42.2356C17.0941 42.1223 17.9326 41.9971 18.814 41.701C18.6194 42.0933 18.4248 42.4855 18.2242 42.8897C16.0835 42.8897 13.9428 42.8897 11.7372 42.8897C12.3269 41.701 12.3269 41.701 12.6218 41.4038Z" fill="white"/>
<path d="M11.7372 38.1348C11.9318 38.2328 12.1264 38.3309 12.327 38.4319C12.3638 39.2863 12.3638 39.2863 12.327 40.215C11.5705 40.9774 11.0069 40.97 9.96802 41.1066C10.3719 39.9193 10.9285 39.0857 11.7372 38.1348Z" fill="white"/>
<path d="M45.9417 18.8184C46.1363 18.9164 46.3309 19.0145 46.5314 19.1155C46.2505 19.5562 45.9675 19.9955 45.6837 20.4343C45.4476 20.8015 45.4476 20.8015 45.2068 21.1761C44.7622 21.7902 44.7622 21.7902 44.1725 22.0874C44.0934 22.3203 44.0143 22.5532 43.9329 22.7932C43.4998 23.758 43.0312 23.9998 42.1084 24.4648C42.5766 23.4281 43.1893 22.5568 43.8592 21.6416C44.1642 21.2233 44.1642 21.2233 44.4754 20.7965C44.9623 20.1357 45.4507 19.4761 45.9417 18.8184Z" fill="white"/>
<path d="M20.878 28.3281C20.4741 29.5154 19.9175 30.349 19.1088 31.2999C18.7196 31.2019 18.3303 31.1038 17.9293 31.0028C18.1546 30.6671 18.3824 30.3331 18.6112 29.9998C18.7378 29.8136 18.8643 29.6274 18.9948 29.4356C19.5346 28.7581 19.9873 28.3281 20.878 28.3281Z" fill="white"/>
<path d="M18.2242 11.0913C18.8139 11.9829 18.8139 11.9829 18.9245 12.7444C19.0387 13.4985 19.0387 13.4985 19.6248 13.8774C20.4351 14.1042 20.9604 13.9905 21.7626 13.7659C21.4707 14.2073 21.4707 14.2073 21.1729 14.6575C19.4121 14.8511 19.4121 14.8511 18.5559 14.3046C18.0014 13.4042 17.8632 12.6325 18.0583 11.5928C18.1131 11.4273 18.1678 11.2618 18.2242 11.0913Z" fill="white"/>
<path d="M33.2624 6.33643C34.7485 6.46858 35.4374 7.14281 36.5059 8.11951C36.0452 8.32382 36.0452 8.32382 35.3265 8.41669C34.6323 8.13439 33.9439 7.83733 33.2624 7.52515C32.9705 7.52515 32.6786 7.52515 32.3778 7.52515C32.6697 7.13287 32.9616 6.74059 33.2624 6.33643Z" fill="white"/>
<path d="M53.9031 19.71C54.0004 19.71 54.0977 19.71 54.198 19.71C54.5333 22.2928 54.7026 24.2737 53.3134 26.5451C53.1188 26.4471 52.9241 26.349 52.7236 26.2479C52.8141 26.0051 52.9046 25.7622 52.9978 25.512C53.3539 24.3304 53.5112 23.1992 53.6451 21.976C53.6706 21.7572 53.696 21.5385 53.7223 21.3131C53.7842 20.7789 53.8439 20.2445 53.9031 19.71Z" fill="white"/>
<path d="M65.4029 4.25622C65.4029 4.55043 65.4029 4.84463 65.4029 5.14776C65.2204 5.0926 65.038 5.03743 64.85 4.9806C64.2111 4.78019 64.2111 4.78019 63.6337 5.14776C63.3353 5.64093 63.0402 6.13613 62.7491 6.63366C62.6518 6.63366 62.5545 6.63366 62.4542 6.63366C62.3805 5.79784 62.3805 5.79784 62.4542 4.85058C63.3603 3.76173 64.1087 3.93012 65.4029 4.25622Z" fill="white"/>
<path d="M41.2239 25.0591C41.5158 25.1572 41.8077 25.2552 42.1085 25.3563C41.9139 25.3563 41.7193 25.3563 41.5187 25.3563C41.4002 25.6045 41.4002 25.6045 41.2792 25.8578C40.929 26.545 40.929 26.545 40.4499 27.2694C39.999 28.1163 39.9704 28.5722 40.0444 29.5168C40.0444 29.811 40.0444 30.1052 40.0444 30.4083C39.5837 30.0926 39.5837 30.0926 39.1598 29.5168C39.1221 27.5802 40.0377 26.4666 41.2239 25.0591Z" fill="white"/>
<path d="M30.3137 4.55371C30.703 4.65178 31.0922 4.74985 31.4932 4.85089C31.2352 6.2625 31.2352 6.2625 30.9035 6.93116C30.5142 6.83309 30.125 6.73502 29.724 6.63398C29.982 5.22237 29.982 5.22237 30.3137 4.55371Z" fill="white"/>
<path d="M41.2238 21.79C41.5157 21.9862 41.8076 22.1823 42.1084 22.3844C41.3299 23.4632 40.5515 24.5419 39.7495 25.6534C39.6522 25.2611 39.5548 24.8688 39.4546 24.4647C39.6492 24.4647 39.8438 24.4647 40.0443 24.4647C40.0443 24.0724 40.0443 23.6801 40.0443 23.2759C40.4682 22.793 40.4682 22.793 40.9289 22.3844C41.0262 22.1883 41.1235 21.9921 41.2238 21.79Z" fill="white"/>
<path d="M65.9926 25.6533C66.0899 25.6533 66.1872 25.6533 66.2875 25.6533C66.2504 25.9648 66.2504 25.9648 66.2126 26.2825C66.1826 26.553 66.1525 26.8234 66.1216 27.1021C66.0908 27.371 66.06 27.6399 66.0283 27.917C65.9346 28.63 65.9346 28.63 66.2875 29.2195C65.9955 29.3666 65.9955 29.3666 65.6977 29.5167C65.3635 30.116 65.3635 30.116 65.108 30.7054C65.038 29.0479 65.2323 27.5461 65.6977 25.9505C65.795 25.8524 65.8923 25.7544 65.9926 25.6533Z" fill="white"/>
<path d="M50.0699 16.4409C50.6781 16.9053 50.6781 16.9053 51.2494 17.6296C51.222 19.1179 50.7864 20.2057 50.0699 21.493C49.7806 20.5858 49.7806 20.0227 50.0699 19.1155C50.2645 19.1155 50.4591 19.1155 50.6596 19.1155C50.465 18.2329 50.2704 17.3503 50.0699 16.4409Z" fill="white"/>
<path d="M65.6978 13.7661C66.4211 14.4951 66.383 14.7851 66.4533 15.7907C66.5362 16.8208 66.6436 17.8093 66.8772 18.8182C66.5853 18.7201 66.2934 18.6221 65.9926 18.521C65.8953 16.9519 65.798 15.3828 65.6978 13.7661Z" fill="white"/>
<path d="M63.9286 9.01123C65.0099 9.73773 65.039 10.1661 65.4029 11.3887C65.5762 11.7197 65.5762 11.7197 65.7531 12.0573C65.8321 12.229 65.9112 12.4006 65.9927 12.5774C65.8953 12.7735 65.798 12.9697 65.6978 13.1718C65.5032 13.1718 65.3086 13.1718 65.1081 13.1718C64.9097 12.6462 64.7136 12.1198 64.5183 11.593C64.4089 11.2999 64.2994 11.0069 64.1866 10.7049C63.9286 9.90277 63.9286 9.90277 63.9286 9.01123Z" fill="white"/>
<path d="M39.4546 21.79C39.4546 22.2853 39.4546 22.7806 39.4546 23.2759C39.26 23.2759 39.0654 23.2759 38.8648 23.2759C38.8648 23.5702 38.8648 23.8644 38.8648 24.1675C38.6702 24.1675 38.4756 24.1675 38.2751 24.1675C38.2751 24.3636 38.2751 24.5598 38.2751 24.7618C37.9832 24.909 37.9832 24.909 37.6854 25.059C37.5881 25.3532 37.4908 25.6474 37.3905 25.9506C37.1959 25.9506 37.0013 25.9506 36.8008 25.9506C37.1986 24.8104 37.7082 23.9738 38.4594 23.0345C38.7388 22.6822 38.7388 22.6822 39.0238 22.3229C39.166 22.147 39.3081 21.9712 39.4546 21.79Z" fill="white"/>
<path d="M17.9294 34.2715C18.124 34.4676 18.3186 34.6638 18.5192 34.8658C18.3245 35.062 18.1299 35.2581 17.9294 35.4602C17.8504 35.6441 17.7713 35.828 17.6898 36.0174C17.231 36.845 16.6156 37.2805 15.8654 37.8377C15.8654 36.7073 16.2009 36.418 16.8974 35.5531C17.089 35.3129 17.2805 35.0727 17.4779 34.8252C17.6269 34.6425 17.7759 34.4598 17.9294 34.2715Z" fill="white"/>
<path d="M58.9159 9.30859C58.7212 10.1912 58.5266 11.0738 58.3261 11.9832C57.5524 11.0735 57.4415 10.8742 57.4415 9.60577C58.3261 9.30859 58.3261 9.30859 58.9159 9.30859Z" fill="white"/>
<path d="M59.8004 7.82228C59.8977 8.01842 59.995 8.21456 60.0953 8.41664C59.9007 8.61278 59.706 8.80892 59.5055 9.01101C59.3231 8.91294 59.1406 8.81487 58.9527 8.71382C58.3526 8.37446 58.3526 8.37446 57.7363 8.41664C57.639 9.00506 57.5417 9.59348 57.4415 10.1997C57.3442 10.1997 57.2469 10.1997 57.1466 10.1997C57.222 9.5034 57.3214 8.80939 57.4415 8.11946C58.2402 7.71696 58.9186 7.80296 59.8004 7.82228Z" fill="white"/>
<path d="M53.9031 11.3887C54.195 11.3887 54.4869 11.3887 54.7877 11.3887C55.2742 12.3694 55.7607 13.3501 56.262 14.3605C55.9701 14.5076 55.9701 14.5076 55.6723 14.6577C55.6723 14.4615 55.6723 14.2654 55.6723 14.0633C55.4777 13.9652 55.2831 13.8672 55.0825 13.7661C55.1798 13.57 55.2772 13.3738 55.3774 13.1718C55.0855 13.0737 54.7936 12.9756 54.4928 12.8746C54.4928 12.4823 54.4928 12.09 54.4928 11.6859C54.2982 11.5878 54.1036 11.4897 53.9031 11.3887Z" fill="white"/>
<path d="M14.6858 38.4321C14.9807 39.3237 14.9807 39.3237 14.7595 39.918C14.3902 40.5136 14.0413 40.9547 13.5064 41.4039C13.3117 41.4039 13.1171 41.4039 12.9166 41.4039C13.4036 40.3404 14.0321 39.3985 14.6858 38.4321Z" fill="white"/>
<path d="M22.6473 24.4648C22.7446 24.661 22.8419 24.8571 22.9421 25.0592C22.6502 25.5005 22.6502 25.5005 22.3524 25.9507C22.1578 25.9507 21.9632 25.9507 21.7627 25.9507C21.6836 26.1346 21.6045 26.3185 21.5231 26.508C21.1729 27.1395 21.1729 27.1395 20.2883 27.7338C20.6904 26.8446 21.1579 26.1617 21.7995 25.4307C21.9584 25.2483 22.1173 25.066 22.281 24.8781C22.4623 24.6735 22.4623 24.6735 22.6473 24.4648Z" fill="white"/>
<path d="M44.7623 14.6577C45.4995 15.0292 45.4995 15.0292 46.2366 15.5493C46.2366 15.9415 46.2366 16.3338 46.2366 16.738C45.7501 16.2476 45.2636 15.7573 44.7623 15.2521C44.665 15.5463 44.5677 15.8405 44.4674 16.1436C44.2728 16.0456 44.0782 15.9475 43.8777 15.8464C44.1696 15.4542 44.4615 15.0619 44.7623 14.6577Z" fill="white"/>
<path d="M53.3134 15.5493C54.198 16.738 54.198 16.738 54.2198 17.5042C54.1822 17.7662 54.1446 18.0283 54.1058 18.2982C54.0528 18.6959 54.0528 18.6959 53.9987 19.1016C53.9671 19.3023 53.9356 19.503 53.9031 19.7099C53.8058 19.7099 53.7085 19.7099 53.6082 19.7099C53.5109 18.3369 53.4136 16.9639 53.3134 15.5493Z" fill="white"/>
<path d="M68.0567 29.814C68.154 29.814 68.2513 29.814 68.3515 29.814C68.2542 30.6966 68.1569 31.5792 68.0567 32.4886C67.8621 32.4886 67.6675 32.4886 67.4669 32.4886C67.3932 30.817 67.3932 30.817 68.0567 29.814Z" fill="white"/>
<path d="M33.2624 6.33643C33.9627 6.42929 33.9627 6.42929 34.7367 6.63361C34.9314 6.92782 35.126 7.22203 35.3265 7.52515C34.6453 7.32901 33.9642 7.13287 33.2624 6.93079C33.1651 7.225 33.0678 7.51921 32.9675 7.82233C32.7729 7.72426 32.5783 7.62619 32.3778 7.52515C32.6697 7.13287 32.9616 6.74059 33.2624 6.33643Z" fill="white"/>
<path d="M42.1085 18.8184C42.4004 18.8184 42.6923 18.8184 42.9931 18.8184C42.8958 19.2106 42.7985 19.6029 42.6982 20.0071C42.2117 20.1052 41.7252 20.2032 41.2239 20.3043C41.4185 20.2062 41.6131 20.1081 41.8136 20.0071C42.0059 19.4054 42.0059 19.4054 42.1085 18.8184Z" fill="white"/>
</svg>
