<svg width="30" height="36" viewBox="0 0 30 36" fill="none" xmlns="http://www.w3.org/2000/svg">
<path d="M13.6875 22.4375L20.75 15.375L18.9688 13.5938L13.6875 18.875L11.0625 16.25L9.28125 18.0312L13.6875 22.4375ZM15 30.5C12.1042 29.7708 9.71354 28.1094 7.82812 25.5156C5.94271 22.9219 5 20.0417 5 16.875V9.25L15 5.5L25 9.25V16.875C25 20.0417 24.0573 22.9219 22.1719 25.5156C20.2865 28.1094 17.8958 29.7708 15 30.5ZM15 27.875C17.1667 27.1875 18.9583 25.8125 20.375 23.75C21.7917 21.6875 22.5 19.3958 22.5 16.875V10.9688L15 8.15625L7.5 10.9688V16.875C7.5 19.3958 8.20833 21.6875 9.625 23.75C11.0417 25.8125 12.8333 27.1875 15 27.875Z" fill="#135BEC"/>
</svg>
